# xmcd
#
# Track frame offsets:
#	210
#	19941
#	38588
#	56925
#	76597
#	97858
#	116863
#	139712
#	160678
#	180472
#	201604
#	220796
#	236998
#	255427
#	272056
#	295791
#
# Disc length: 4428
#
# Revision: 1
# Processed by: cddbd v1.5.1PL0 Copyright (c) Steve Scherf et al.
# Submitted via: EasyCDDAExtractor 7.1.2.1
# Normalized: r0:DSETVAR1
#
DISCID=e0114a10
DTITLE=Various Artist - 80's Dynmite
DYEAR=1900
DGENRE=
TTITLE0=Culture Club - Do you really want to hurt me
TTITLE1=Tears For Fears - Everybody wants to rule the world
TTITLE2=Berlinda Carlisle - Heaven is a place on earth
TTITLE3=Frankie Goes to Hollywood - Welcome to the pleasuredome
TTITLE4=James Brown - Living in America
TTITLE5=A Flock Of Seabulls - Whishing ( I had a photograph of you )
TTITLE6=Propaganda - Dr. Mabuse
TTITLE7=Cock Robin - When your heart is weak
TTITLE8=Prefab Sprout - The king of Rock 'n' Roll
TTITLE9=Eurythmics - There must be an angel ( Playing with my heart )
TTITLE10=Everyting But The Girl - I don't want to talk about it
TTITLE11=Fairground Attraction - Perfect
TTITLE12=The Stranglers - Always the sun
TTITLE13=Pigbag - Papa's got a brand new pig bag
TTITLE14=The Psychedelic Furs - Heartbeat
TTITLE15=The Systers Of Mercy - Temple of love
EXTD=
EXTT0=
EXTT1=
EXTT2=
EXTT3=
EXTT4=
EXTT5=
EXTT6=
EXTT7=
EXTT8=
EXTT9=
EXTT10=
EXTT11=
EXTT12=
EXTT13=
EXTT14=
EXTT15=
PLAYORDER=
